<?xml version="1.0" encoding="UTF-8" standalone="no"?>
<!-- Created with Inkscape (http://www.inkscape.org/) -->

<svg
   xmlns:dc="http://purl.org/dc/elements/1.1/"
   xmlns:cc="http://creativecommons.org/ns#"
   xmlns:rdf="http://www.w3.org/1999/02/22-rdf-syntax-ns#"
   xmlns:svg="http://www.w3.org/2000/svg"
   xmlns="http://www.w3.org/2000/svg"
   xmlns:sodipodi="http://sodipodi.sourceforge.net/DTD/sodipodi-0.dtd"
   xmlns:inkscape="http://www.inkscape.org/namespaces/inkscape"
   width="113.38583"
   height="177.16534"
   id="svg3048"
   version="1.1"
   inkscape:version="0.48.4 r9939"
   sodipodi:docname="lingpy-logo.svg">
  <defs
     id="defs3050">
    <clipPath
       clipPathUnits="userSpaceOnUse"
       id="clipPath30">
      <path
         inkscape:connector-curvature="0"
         d="M 0,0 612,0 612,792 0,792 0,0 z"
         id="path32" />
    </clipPath>
  </defs>
  <sodipodi:namedview
     id="base"
     pagecolor="#ffffff"
     bordercolor="#666666"
     borderopacity="1.0"
     inkscape:pageopacity="0.0"
     inkscape:pageshadow="2"
     inkscape:zoom="2.8"
     inkscape:cx="45.759336"
     inkscape:cy="93.776541"
     inkscape:document-units="px"
     inkscape:current-layer="layer1"
     showgrid="false"
     units="cm"
     inkscape:window-width="1009"
     inkscape:window-height="945"
     inkscape:window-x="215"
     inkscape:window-y="74"
     inkscape:window-maximized="0" />
  <metadata
     id="metadata3053">
    <rdf:RDF>
      <cc:Work
         rdf:about="">
        <dc:format>image/svg+xml</dc:format>
        <dc:type
           rdf:resource="http://purl.org/dc/dcmitype/StillImage" />
        <dc:title />
      </cc:Work>
    </rdf:RDF>
  </metadata>
  <g
     inkscape:label="Ebene 1"
     inkscape:groupmode="layer"
     id="layer1"
     transform="translate(0,-875.19549)">
    <g
       id="g18"
       transform="matrix(0.6124844,0,0,-0.61243505,13.908875,922.32982)">
      <g
         id="g20"
         transform="translate(284.52,94.31)">
        <g
           id="g22"
           transform="matrix(1.2,0,0,1.2,56.35,57.68)">
          <g
             id="g24"
             transform="matrix(0.8333,0,0,0.8333,-344.07,-302.88)">
            <g
               id="g26">
              <g
                 id="g28"
                 clip-path="url(#clipPath30)">
                <g
                   id="g34"
                   transform="scale(0.1,0.1)">
                  <path
                     inkscape:connector-curvature="0"
                     d="m 747.645,173.602 c 0,0 1039.925,-320.704 1360.625,0 240.53,240.527 240.53,779.945 0,1020.468 -240.52,240.53 -779.94,-240.523 -1020.47,0 -80.17,80.18 -80.17,259.98 0,340.16 240.53,240.53 779.95,-240.53 1020.47,0 240.53,240.53 240.53,779.95 0,1020.47 -320.7,320.71 -1039.92,320.71 -1360.625,0 -80.176,-80.17 -80.176,-259.98 0,-340.15 240.527,-240.53 779.945,240.52 1020.475,0 80.17,-80.18 80.17,-259.98 0,-340.16 -240.53,-240.53 -779.948,240.53 -1020.475,0 -240.528,-240.53 -240.528,-779.94 0,-1020.472 240.527,-240.527 779.945,240.532 1020.475,0 80.17,-80.176 80.17,-259.98 0,-340.156 -240.53,-240.528 -779.948,240.527 -1020.475,0 -80.176,-80.176 0,-340.16 0,-340.16"
                     style="fill:#d16a56;fill-opacity:1;fill-rule:nonzero;stroke:none"
                     id="path36" />
                  <path
                     inkscape:connector-curvature="0"
                     d="m 747.645,173.602 c 0,0 1039.925,-320.704 1360.625,0 240.53,240.527 240.53,779.945 0,1020.468 -240.52,240.53 -779.94,-240.523 -1020.47,0 -80.17,80.18 -80.17,259.98 0,340.16 240.53,240.53 779.95,-240.53 1020.47,0 240.53,240.53 240.53,779.95 0,1020.47 -320.7,320.71 -1039.92,320.71 -1360.625,0 -80.176,-80.17 -80.176,-259.98 0,-340.15 240.527,-240.53 779.945,240.52 1020.475,0 80.17,-80.18 80.17,-259.98 0,-340.16 -240.53,-240.53 -779.948,240.53 -1020.475,0 -240.528,-240.53 -240.528,-779.94 0,-1020.472 240.527,-240.527 779.945,240.532 1020.475,0 80.17,-80.176 80.17,-259.98 0,-340.156 -240.53,-240.528 -779.948,240.527 -1020.475,0 -80.176,-80.176 0,-340.16 0,-340.16"
                     style="fill:none;stroke:#000000;stroke-width:9.56412983;stroke-linecap:butt;stroke-linejoin:miter;stroke-miterlimit:10;stroke-opacity:1;stroke-dasharray:none"
                     id="path38" />
                  <path
                     inkscape:connector-curvature="0"
                     d="m 1049,2486.68 c 0,34.93 -28.32,63.24 -63.246,63.24 -34.93,0 -63.25,-28.31 -63.25,-63.24 0,-34.93 28.32,-63.25 63.25,-63.25 34.926,0 63.246,28.32 63.246,63.25"
                     style="fill:#6095be;fill-opacity:1;fill-rule:nonzero;stroke:none"
                     id="path40" />
                  <path
                     inkscape:connector-curvature="0"
                     d="m 1049,2486.68 c 0,34.93 -28.32,63.24 -63.246,63.24 -34.93,0 -63.25,-28.31 -63.25,-63.24 0,-34.93 28.32,-63.25 63.25,-63.25 34.926,0 63.246,28.32 63.246,63.25 z"
                     style="fill:none;stroke:#000000;stroke-width:9.56412983;stroke-linecap:butt;stroke-linejoin:miter;stroke-miterlimit:10;stroke-opacity:1;stroke-dasharray:none"
                     id="path42" />
                  <path
                     inkscape:connector-curvature="0"
                     d="m 747.645,2214.55 c 0,0 94.531,-20.77 136.058,0 51.914,25.95 102.051,136.06 102.051,136.06"
                     style="fill:none;stroke:#6095be;stroke-width:68.03040314;stroke-linecap:butt;stroke-linejoin:miter;stroke-miterlimit:10;stroke-opacity:1;stroke-dasharray:none"
                     id="path44" />
                </g>
              </g>
            </g>
          </g>
        </g>
        <g
           id="g46"
           transform="translate(-284.52,-94.31)" />
      </g>
    </g>
  </g>
</svg>
